<svg width="31" height="31" viewBox="0 0 31 31" fill="none" xmlns="http://www.w3.org/2000/svg">
<path fill-rule="evenodd" clip-rule="evenodd" d="M15.5 30.7983C25.5 30.7983 31 24.0826 31 15.7983C31 7.51407 26.5 0.79834 15.5 0.79834C4.5 0.79834 0 7.51407 0 15.7983C0 24.0826 5.5 30.7983 15.5 30.7983ZM10 19.7983C11.1046 19.7983 12 18.6791 12 17.2983C12 15.9176 11.1046 14.7983 10 14.7983C8.89543 14.7983 8 15.9176 8 17.2983C8 18.6791 8.89543 19.7983 10 19.7983ZM24 17.2983C24 18.6791 23.1046 19.7983 22 19.7983C20.8954 19.7983 20 18.6791 20 17.2983C20 15.9176 20.8954 14.7983 22 14.7983C23.1046 14.7983 24 15.9176 24 17.2983ZM10.5 21.2983C10.2239 21.2983 10 21.5222 10 21.7983C10 22.0745 10.2239 22.2983 10.5 22.2983H22C22.2761 22.2983 22.5 22.0745 22.5 21.7983C22.5 21.5222 22.2761 21.2983 22 21.2983H10.5Z" fill="black"/>
</svg>
