<svg width="39" height="38" viewBox="0 0 39 38" fill="none" xmlns="http://www.w3.org/2000/svg">
<path d="M33.6371 14.7924C34.7715 18.6038 34.5216 22.3858 32.8823 25.5395C31.2466 28.6863 28.1891 31.2816 23.5649 32.6579C18.9408 34.0341 14.9617 33.5331 11.8714 31.7928C8.77443 30.0488 6.4972 27.0189 5.36284 23.2075C4.21777 19.3601 4.25054 15.6495 5.76647 12.5511C7.27556 9.46664 10.3147 6.86597 15.4351 5.34202C20.5555 3.81808 24.5221 4.33367 27.4722 6.09096C30.4356 7.85621 32.4921 10.945 33.6371 14.7924Z" stroke="black" stroke-width="1.5"/>
<path d="M22.4794 25.7082C17.8071 27.0988 15.2811 24.622 14.1755 22.9834C13.6898 22.2636 13.9338 21.3333 14.6484 20.84C17.7511 18.6979 21.7615 17.1139 25.5178 16.7756C26.3859 16.6974 27.16 17.276 27.2626 18.1416C27.5182 20.2988 27.2801 24.2794 22.4794 25.7082Z" stroke="black" stroke-width="1.5" stroke-linecap="round"/>
<path d="M9 13H13.447C14.1743 13 14.6583 13.7517 14.3574 14.4138L12.5 18.5" stroke="black" stroke-width="1.5" stroke-linecap="round"/>
<path d="M23.7955 13.8655L19.5001 12.7145C18.7976 12.5263 18.5246 11.6749 18.9867 11.1133L21.8383 7.64702" stroke="black" stroke-width="1.5" stroke-linecap="round"/>
</svg>
