<svg width="31" height="30" viewBox="0 0 31 30" fill="none" xmlns="http://www.w3.org/2000/svg">
<path fill-rule="evenodd" clip-rule="evenodd" d="M15.5 30C25.5 30 31 23.2843 31 15C31 6.71573 26.5 0 15.5 0C4.5 0 0 6.71573 0 15C0 23.2843 5.5 30 15.5 30ZM10 15C11.1046 15 12 13.8807 12 12.5C12 11.1193 11.1046 10 10 10C8.89543 10 8 11.1193 8 12.5C8 13.8807 8.89543 15 10 15ZM24 12.5C24 13.8807 23.1046 15 22 15C20.8954 15 20 13.8807 20 12.5C20 11.1193 20.8954 10 22 10C23.1046 10 24 11.1193 24 12.5ZM11.5 17.9981C11.4989 17.7228 11.2755 17.5 11 17.5C10.7239 17.5 10.5 17.7239 10.5 18H11C10.5 18 10.5 18.0003 10.5 18.0007L10.5 18.0014L10.5 18.0032L10.5 18.0079L10.5003 18.0216C10.5005 18.0326 10.5009 18.0474 10.5017 18.0657C10.5032 18.1024 10.5061 18.1533 10.5117 18.2163C10.523 18.3423 10.5451 18.518 10.5886 18.727C10.6754 19.1434 10.8494 19.7025 11.201 20.265C11.9238 21.4215 13.3401 22.5 16 22.5C18.6599 22.5 20.0762 21.4215 20.799 20.265C21.1506 19.7025 21.3246 19.1434 21.4114 18.727C21.4549 18.518 21.477 18.3423 21.4883 18.2163C21.4939 18.1533 21.4968 18.1024 21.4983 18.0657C21.4991 18.0474 21.4995 18.0326 21.4997 18.0216L21.5 18.0079L21.5 18.0032L21.5 18.0014V18.0007C21.5 18.0003 21.5 18 21 18H21.5C21.5 17.7239 21.2761 17.5 21 17.5C20.724 17.5 20.5003 17.7235 20.5 17.9994C20.5 17.9997 20.5 18 21 18H20.5L20.5 18.0014C20.4999 18.0055 20.4997 18.0131 20.4992 18.0241C20.4983 18.046 20.4963 18.0811 20.4922 18.1274C20.4839 18.2202 20.467 18.357 20.4324 18.523C20.3629 18.8566 20.2244 19.2975 19.951 19.735C19.4238 20.5785 18.3401 21.5 16 21.5C13.6599 21.5 12.5762 20.5785 12.049 19.735C11.7756 19.2975 11.6371 18.8566 11.5676 18.523C11.533 18.357 11.5161 18.2202 11.5078 18.1274C11.5036 18.0811 11.5017 18.046 11.5008 18.0241C11.5003 18.0131 11.5001 18.0055 11.5001 18.0014L11.5 18H11C11.5 18 11.5 17.9997 11.5 17.9994L11.5 17.999L11.5 17.9983V17.9981Z" fill="black"/>
</svg>
