<svg width="31" height="31" viewBox="0 0 31 31" fill="none" xmlns="http://www.w3.org/2000/svg">
<path fill-rule="evenodd" clip-rule="evenodd" d="M15.5 30.7983C25.5 30.7983 31 24.0826 31 15.7983C31 7.51407 26.5 0.79834 15.5 0.79834C4.5 0.79834 0 7.51407 0 15.7983C0 24.0826 5.5 30.7983 15.5 30.7983ZM10.8129 26.2926C11.8312 25.4758 12.7304 24.7942 13.7655 24.6308C14.7524 24.475 15.9825 24.7816 17.6682 26.2767C17.8748 26.4599 18.1908 26.441 18.3741 26.2344C18.5573 26.0278 18.5384 25.7118 18.3318 25.5285C16.5175 23.9194 14.9976 23.4239 13.6095 23.643C12.2696 23.8546 11.1688 24.7251 10.1871 25.5126C9.97174 25.6854 9.93718 26.0001 10.11 26.2155C10.2828 26.4309 10.5974 26.4654 10.8129 26.2926ZM11.3 16.1984C11.5209 16.0327 11.5657 15.7193 11.4 15.4984C11.2343 15.2775 10.9209 15.2327 10.7 15.3984C9.16374 16.5506 6.82333 17.4969 5.84188 17.824C5.57991 17.9114 5.43833 18.1945 5.52566 18.4565C5.61298 18.7185 5.89614 18.86 6.15811 18.7727C6.40667 18.6899 6.74103 18.5685 7.12871 18.4141C7.04552 18.689 7 18.987 7 19.2984C7 20.6791 7.89543 21.7984 9 21.7984C10.1046 21.7984 11 20.6791 11 19.2984C11 18.337 10.5659 17.5024 9.9294 17.0841C10.4129 16.8095 10.8816 16.5122 11.3 16.1984ZM18.6464 15.4448C18.8417 15.2495 19.1583 15.2495 19.3536 15.4448C19.7478 15.839 20.4722 16.4677 21.3394 17.0445C22.2122 17.625 23.1905 18.1265 24.0981 18.3081C24.3688 18.3622 24.5444 18.6256 24.4903 18.8964C24.4361 19.1672 24.1727 19.3428 23.9019 19.2886C23.2263 19.1535 22.5459 18.8794 21.9077 18.5454C21.9677 18.783 22 19.036 22 19.2983C22 20.6791 21.1046 21.7983 20 21.7983C18.8954 21.7983 18 20.6791 18 19.2983C18 18.1503 18.6191 17.183 19.4627 16.8896C19.13 16.6127 18.8515 16.357 18.6464 16.1519C18.4512 15.9566 18.4512 15.64 18.6464 15.4448Z" fill="black"/>
</svg>
