<svg width="31" height="30" viewBox="0 0 31 30" fill="none" xmlns="http://www.w3.org/2000/svg">
<path d="M30.25 15C30.25 18.9766 28.9317 22.5302 26.4609 25.0852C23.9954 27.6347 20.3246 29.25 15.5 29.25C10.6754 29.25 7.00456 27.6347 4.53914 25.0852C2.06832 22.5302 0.75 18.9766 0.75 15C0.75 10.9858 1.83988 7.43875 4.17668 4.90149C6.50292 2.37568 10.1577 0.75 15.5 0.75C20.8423 0.75 24.4971 2.37568 26.8233 4.90149C29.1601 7.43875 30.25 10.9858 30.25 15Z" stroke="black" stroke-width="1.5"/>
<ellipse cx="9" cy="18.5" rx="2" ry="2.5" fill="black"/>
<ellipse cx="20" cy="18.5" rx="2" ry="2.5" fill="black"/>
<path d="M10.5 25.1043C12.5 23.5 14.5 22 18 25.1042" stroke="black" stroke-width="1.5" stroke-linecap="round"/>
<path d="M6 17.5C7 17.1667 9.4 16.2 11 15" stroke="black" stroke-width="1.5" stroke-linecap="round"/>
<path d="M19 15C19.8333 15.8333 22 17.6 24 18" stroke="black" stroke-width="1.5" stroke-linecap="round"/>
</svg>
