<svg width="37" height="37" viewBox="0 0 37 37" fill="none" xmlns="http://www.w3.org/2000/svg">
<path fill-rule="evenodd" clip-rule="evenodd" d="M15.282 33.4491C25.0492 35.5945 31.8619 30.215 33.6391 22.1236C35.4164 14.0322 32.4619 6.50747 21.718 4.14763C10.9741 1.78778 5.13814 7.38175 3.3609 15.4731C1.58366 23.5645 5.51487 31.3038 15.282 33.4491ZM13.448 8.27799C13.3253 8.03058 13.0253 7.92944 12.7779 8.05208C12.5305 8.17473 12.4294 8.47472 12.552 8.72213L13.9688 11.5802L11.2601 13.0613C11.0178 13.1938 10.9288 13.4976 11.0613 13.7399C11.1938 13.9822 11.4976 14.0712 11.7399 13.9387L14.4133 12.4769L15.7316 15.1362C15.8542 15.3836 16.1542 15.4848 16.4016 15.3621C16.649 15.2395 16.7502 14.9395 16.6275 14.6921L15.2914 11.9968L18.5815 10.1977C18.8238 10.0652 18.9128 9.76143 18.7804 9.51915C18.6479 9.27686 18.3441 9.18785 18.1018 9.32033L14.8469 11.1001L13.448 8.27799ZM29.7521 12.7763C29.8602 13.0305 29.7417 13.3241 29.4876 13.4321L26.224 14.8195L27.5091 18.0817C27.6103 18.3386 27.4841 18.6289 27.2272 18.7301C26.9702 18.8314 26.6799 18.7051 26.5787 18.4482L25.3034 15.2109L22.1956 16.5321C21.9415 16.6401 21.6479 16.5217 21.5399 16.2676C21.4318 16.0134 21.5503 15.7198 21.8044 15.6118L24.9367 14.2802L23.7278 11.2113C23.6266 10.9544 23.7528 10.6641 24.0097 10.5629C24.2667 10.4616 24.557 10.5879 24.6582 10.8448L25.8574 13.8888L29.0964 12.5118C29.3505 12.4038 29.6441 12.5222 29.7521 12.7763ZM13.8798 25.1904C16.7934 22.3285 21.0165 21.5721 23.0294 27.5584C23.3297 28.4514 22.2107 29.154 21.3902 28.6908C19.6358 27.7005 17.343 26.8425 15.002 26.9372C14.0314 26.9765 13.1868 25.8711 13.8798 25.1904Z" fill="black"/>
</svg>
