<svg width="75" height="102" viewBox="0 0 75 102" fill="none" xmlns="http://www.w3.org/2000/svg">
<g clip-path="url(#clip0_247_1690)">
<path d="M19.25 61.5263C22.7073 61.5263 26.023 60.14 28.4676 57.6725C30.9123 55.2049 32.2857 51.8581 32.2857 48.3684C32.2857 41.1053 29.6786 37.8421 27.0714 32.5789C21.4817 21.3 25.9034 11.2421 37.5 1C40.1071 14.1579 47.9286 26.7895 58.3571 35.2105C68.7857 43.6316 74 53.6316 74 64.1579C74 68.9961 73.0559 73.7869 71.2216 78.2568C69.3873 82.7266 66.6987 86.7881 63.3094 90.2092C59.9201 93.6303 55.8963 96.3441 51.4679 98.1956C47.0396 100.047 42.2932 101 37.5 101C32.7068 101 27.9604 100.047 23.5321 98.1956C19.1037 96.3441 15.0799 93.6303 11.6906 90.2092C8.30126 86.7881 5.61269 82.7266 3.7784 78.2568C1.9441 73.7869 1 68.9961 1 64.1579C1 58.0895 3.25779 52.0842 6.21429 48.3684C6.21429 51.8581 7.58769 55.2049 10.0324 57.6725C12.477 60.14 15.7927 61.5263 19.25 61.5263Z" fill="black" stroke="black" stroke-width="1.75" stroke-linecap="round" stroke-linejoin="round"/>
</g>
<defs>
<clipPath id="clip0_247_1690">
<rect width="75" height="102" fill="white"/>
</clipPath>
</defs>
</svg>
