<svg width="37" height="36" viewBox="0 0 37 36" fill="none" xmlns="http://www.w3.org/2000/svg">
<path d="M32.9066 21.1644C32.0535 25.0484 30.0035 28.2364 27.0421 30.2019C24.0871 32.1631 20.1552 32.9533 15.4429 31.9183C10.7307 30.8832 7.49184 28.518 5.63076 25.499C3.7656 22.4734 3.24033 18.7197 4.09344 14.8357C4.9546 10.915 6.78007 7.68431 9.60678 5.70744C12.4207 3.7395 16.3391 2.93572 21.5571 4.08182C26.775 5.22792 29.9959 7.59981 31.7261 10.5659C33.4642 13.5454 33.7678 17.2437 32.9066 21.1644Z" stroke="black" stroke-width="1.5"/>
<path d="M13 7.49991L16.1796 14.1157M18.3417 8.96056L11.5 12.5" stroke="black" stroke-width="1.5" stroke-linecap="round"/>
<path d="M24.193 10.2297L27.0439 17.4666M29.292 12.1736L22 15.2736" stroke="black" stroke-width="1.5" stroke-linecap="round"/>
<path d="M23.0294 26.76C21.0165 20.7737 16.7934 21.5301 13.8798 24.392C13.1868 25.0727 14.0314 26.1781 15.002 26.1389C17.343 26.0441 19.6357 26.9021 21.3902 27.8924C22.2107 28.3556 23.3297 27.6531 23.0294 26.76Z" stroke="black" stroke-width="1.5" stroke-linecap="round"/>
</svg>
