<svg width="39" height="38" viewBox="0 0 39 38" fill="none" xmlns="http://www.w3.org/2000/svg">
<path fill-rule="evenodd" clip-rule="evenodd" d="M23.7789 33.1751C33.3634 30.3225 36.7191 22.3169 34.356 14.3768C31.9928 6.43673 25.7641 1.28369 15.2211 4.42153C4.67817 7.55936 2.28085 15.2797 4.64401 23.2198C7.00716 31.1598 14.1943 36.0276 23.7789 33.1751ZM14.1755 22.7818C15.2811 24.4204 17.8071 26.8972 22.4794 25.5066C27.2801 24.0778 27.5181 20.0972 27.2626 17.94C27.16 17.0744 26.3859 16.4958 25.5178 16.574C21.7615 16.9123 17.7511 18.4963 14.6484 20.6384C13.9338 21.1317 13.6898 22.062 14.1755 22.7818ZM8.5 12.7984C8.5 12.5223 8.72386 12.2984 9 12.2984L13.447 12.2984C14.5379 12.2984 15.264 13.4259 14.8125 14.4191L12.9552 18.5053C12.8409 18.7567 12.5445 18.8678 12.2931 18.7536C12.0417 18.6393 11.9305 18.3429 12.0448 18.0915L13.9022 14.0053C14.0527 13.6742 13.8106 13.2984 13.447 13.2984L9 13.2984C8.72386 13.2984 8.5 13.0745 8.5 12.7984ZM23.6661 14.1468C23.9329 14.2183 24.207 14.06 24.2785 13.7933C24.35 13.5265 24.1917 13.2524 23.925 13.1809L19.6295 12.0299C19.2782 11.9358 19.1417 11.5101 19.3728 11.2293L22.2244 7.76308C22.3999 7.54983 22.3692 7.23473 22.156 7.05929C21.9427 6.88385 21.6276 6.9145 21.4522 7.12775L18.6005 10.594C17.9074 11.4365 18.3169 12.7135 19.3707 12.9959L23.6661 14.1468Z" fill="black"/>
</svg>
